# xmcd
#
# Track frame offsets:
#	150
#	16778
#	27843
#	43579
#	56767
#	68484
#	81143
#	100977
#	119151
#	143349
#	164092
#	179138
#	197376
#	217720
#	227620
#	243190
#	258402
#	267646
#	280815
#	289288
#
# Disc length: 4158 seconds
#
# Revision: 2
# Processed by: cddbd v1.5.2PL0 Copyright (c) Steve Scherf et al.
# Submitted via: audiograbber 1.83.01
#
DISCID=20103c14
DTITLE=Various Artist - Spirituals and Gospel Songs - Disc 2
DYEAR=2004
DGENRE=Gospel
TTITLE0=Aretha Franklin - While The Blood Runs Warm
TTITLE1=Raspberry Singers - Let's Spread The News
TTITLE2=Croydon SDA Gospel Choir - You're All I Need To Get By
TTITLE3=Lee Patterson - Go Tell It To The Mountain
TTITLE4=Golden Gate Quartet - Good News
TTITLE5=Joe Simon - My Special Prayer
TTITLE6=United Gospel Singers LA - The Blood
TTITLE7=Church On The Street Singers - People Get Ready
TTITLE8=Gloria Gaynor and United Inspirational Gospel Chorus - Oh Happy Day
TTITLE9=Pretty Singers - Going Home Tomorrow
TTITLE10=Golden Gate Quartet - Wade In The Water
TTITLE11=Land Of Grace - Don't Let Me Stand In The Rain
TTITLE12=Nighty Clouds Of Joy - I Know I Got Religion
TTITLE13=Brenda Lee - Have A Little Talk With Jesus
TTITLE14=Pat Boone - Family Bible
TTITLE15=Slim Whitman - Manison Over The Hilltop
TTITLE16=Jordanaires - Joshua Fit The Battle Of Jericho
TTITLE17=Elvis Presley - Peace In The Valley
TTITLE18=Impressions - I Need Your Love
TTITLE19=Joe Simon - Lay My Burdon Down
EXTD=
EXTT0=
EXTT1=
EXTT2=
EXTT3=
EXTT4=
EXTT5=
EXTT6=
EXTT7=
EXTT8=
EXTT9=
EXTT10=
EXTT11=
EXTT12=
EXTT13=
EXTT14=
EXTT15=
EXTT16=
EXTT17=
EXTT18=
EXTT19=
PLAYORDER=
